HIERARCHY
ROOT Hips
{
  OFFSET 13.6774 106.653 -34.4427
  CHANNELS 6 Xposition Yposition Zposition Zrotation Xrotation Yrotation
  JOINT ToSpine
  {
    OFFSET -2.69724 7.43032 -0.144315
    CHANNELS 3 Zrotation Xrotation Yrotation
    JOINT Spine
    {
      OFFSET -0.0310711 10.7595 1.96963
      CHANNELS 3 Zrotation Xrotation Yrotation
      JOINT Spine1
      {
        OFFSET 19.9056 3.91189 0.764692
        CHANNELS 3 Zrotation Xrotation Yrotation
        JOINT Neck
        {
          OFFSET 25.9749 7.03908 -0.130764
          CHANNELS 3 Zrotation Xrotation Yrotation
          JOINT Head
          {
            OFFSET 9.52751 0.295786 -0.907742
            CHANNELS 3 Zrotation Xrotation Yrotation
            End Site
            {
              OFFSET 16.4037 0.713936 2.7358
            }
          }
        }
        JOINT LeftShoulder
        {
          OFFSET 17.7449 4.33886 11.7777
          CHANNELS 3 Zrotation Xrotation Yrotation
          JOINT LeftArm
          {
            OFFSET 0.911315 1.27913 9.80584
            CHANNELS 3 Zrotation Xrotation Yrotation
            JOINT LeftForeArm
            {
              OFFSET 28.6126 1.18197 -3.53199
              CHANNELS 3 Zrotation Xrotation Yrotation
              JOINT LeftHand
              {
                OFFSET 27.5088 0.0218783 0.327423
                CHANNELS 3 Zrotation Xrotation Yrotation
                End Site
                {
                  OFFSET 18.6038 -0.000155887 0.382096
                }
              }
            }
          }
        }
        JOINT RightShoulder
        {
          OFFSET 17.1009 2.89543 -12.2328
          CHANNELS 3 Zrotation Xrotation Yrotation
          JOINT RightArm
          {
            OFFSET 1.4228 0.178766 -10.211
            CHANNELS 3 Zrotation Xrotation Yrotation
            JOINT RightForeArm
            {
              OFFSET 28.733 1.87905 2.64907
              CHANNELS 3 Zrotation Xrotation Yrotation
              JOINT RightHand
              {
                OFFSET 27.4588 0.290562 -0.101845
                CHANNELS 3 Zrotation Xrotation Yrotation
                End Site
                {
                  OFFSET 17.8396 -0.255518 -0.000602873
                }
              }
            }
          }
        }
      }
    }
  }
  JOINT LeftUpLeg
  {
    OFFSET -5.61296 -2.22332 -10.2353
    CHANNELS 3 Zrotation Xrotation Yrotation
    JOINT LeftLeg
    {
      OFFSET 2.56703 -44.7417 -7.93097
      CHANNELS 3 Zrotation Xrotation Yrotation
      JOINT LeftFoot
      {
        OFFSET 3.16933 -46.5642 -3.96578
        CHANNELS 3 Zrotation Xrotation Yrotation
        JOINT LeftToeBase
        {
          OFFSET 0.346054 -6.02161 12.8035
          CHANNELS 3 Zrotation Xrotation Yrotation
          End Site
          {
            OFFSET 0.134235 -1.35082 5.13018
          }
        }
      }
    }
  }
  JOINT RightUpLeg
  {
    OFFSET -5.7928 -1.72406 10.6446
    CHANNELS 3 Zrotation Xrotation Yrotation
    JOINT RightLeg
    {
      OFFSET -2.57161 -44.7178 -7.85259
      CHANNELS 3 Zrotation Xrotation Yrotation
      JOINT RightFoot
      {
        OFFSET -3.10148 -46.5936 -4.03391
        CHANNELS 3 Zrotation Xrotation Yrotation
        JOINT RightToeBase
        {
          OFFSET -0.0828122 -6.13587 12.8035
          CHANNELS 3 Zrotation Xrotation Yrotation
          End Site
          {
            OFFSET -0.131328 -1.35082 5.13018
          }
        }
      }
    }
  }
}
MOTION
Frames: 8
Frame Time: 0.03333333333333333
0.0000 93.1000 0.0000 64.2887 -2.1523 -14.8405 -71.0101 -0.0033 87.9932 118.3336 64.4957 -25.3259 -13.8560 16.8708 1.5198 -147.6160 32.8274 158.0625 -132.4492 71.1148 165.7011 -1.9877 -24.8745 -33.4855 -66.1311 20.1604 -139.7855 27.2287 -2.0475 -92.0751 0.0917 -0.2032 0.2752 -0.1534 4.5686 7.2187 -133.5920 0.3336 101.8003 -3.1628 1.1526 59.1699 0.6460 -0.4725 0.2143 -52.9871 8.2910 103.4519 -1.9134 30.7497 -2.8106 -8.8338 -8.0447 -0.0873 6.0067 -15.4447 9.1176 -15.0017 -2.8738 115.3379 1.2339 49.3628 -8.8897 4.4403 -2.6427 -0.4156 1.0461 -0.0259 -10.2908 
0.0000 93.1000 0.0000 64.2422 5.0359 -9.8045 -71.0549 -0.1903 88.0877 113.2802 64.5449 -21.3229 -11.6468 17.3156 -1.0440 -142.8869 34.6156 151.9835 -131.9476 74.7920 167.6623 -0.8459 -24.0202 -30.5724 -64.4209 17.8057 -143.4463 26.8352 -3.1969 -93.5830 0.0343 -1.2183 1.0838 -0.1872 5.4412 9.2989 -138.2664 1.3760 102.5604 -2.8802 0.4797 63.5014 0.8013 -1.5894 0.5845 -49.5177 12.2501 101.6037 -3.0255 29.6566 -7.8205 -7.1128 -3.7270 0.9746 5.5013 -14.5505 4.8461 -17.3988 -5.0900 114.1665 1.1550 46.5844 -5.7073 3.8719 -0.4286 -1.0574 2.3095 -5.9158 -11.3964 
0.0000 93.1000 0.0000 63.9432 9.9175 -6.3981 -71.0799 0.0910 88.1223 111.7653 65.3440 -19.7300 -8.9670 18.3260 -3.4286 -139.5273 38.0079 151.1883 -139.4628 78.8725 173.0647 -2.2140 -23.7793 -29.8756 -63.8279 15.7099 -145.3500 25.1444 -3.6819 -94.7225 0.1375 0.2091 -0.2605 -0.3113 6.1866 11.8684 -140.2544 1.9879 102.6794 -0.0644 -0.8879 66.5674 -0.1913 -0.0504 -0.1149 -49.1456 12.2458 98.7404 -2.3342 25.1666 -7.4075 -6.1129 -2.0831 -0.4527 5.5309 -15.6974 6.6101 -21.8316 -7.0852 112.0041 1.7483 43.3461 -0.0145 4.1860 -1.5839 -0.3137 2.2443 -11.3107 -21.0631 
0.0000 93.1000 0.0000 65.5144 12.7270 -3.0658 -71.0829 -0.1389 88.0943 111.6877 66.2344 -20.7700 -9.2036 19.3200 -2.4994 -134.0081 39.7928 150.6218 -161.4658 82.1414 -164.9876 -0.6090 -23.0144 -28.6677 -63.6289 16.0743 -148.1837 24.2261 -2.5415 -95.2450 -0.3988 -1.3346 1.0143 -0.5420 6.4841 14.4319 -142.1442 2.2310 101.9607 3.0158 -2.1899 68.8820 0.7828 -1.6676 0.8833 -50.4170 12.8741 97.4919 -0.6784 24.0861 -3.6687 -6.8089 -2.5105 1.0962 4.4706 -12.6273 3.0538 -25.3890 -9.3973 107.0594 0.9515 40.5962 -0.2616 7.7188 -6.4273 -1.5219 1.8145 -3.5976 -13.9026 
0.0000 93.1000 0.0000 66.5437 14.8266 0.7252 -71.0831 0.3876 88.0625 110.7427 67.3857 -22.7566 -8.4836 19.2815 0.0895 -131.1538 40.8349 153.1679 -172.8762 84.0264 -151.6084 -3.1346 -22.0463 -27.6302 -63.5636 16.4287 -151.4144 23.1284 -2.3138 -93.9109 0.3216 1.3664 -0.9075 -0.6735 5.9636 17.1215 -143.7968 2.3189 99.8183 2.6928 -1.6409 71.8322 -1.4784 1.3194 -0.6994 -49.8117 14.3310 97.1653 -0.8432 21.9499 -6.1410 -7.2089 -2.1775 -1.2654 5.0385 -12.0119 2.8691 -28.2822 -10.0500 101.6715 1.5041 38.6555 4.0124 8.7796 -8.8026 -0.3821 2.0530 -3.2445 -15.1418 
0.0000 93.1000 0.0000 67.1467 16.6406 2.3145 -71.1656 -0.0484 88.1234 106.5717 68.1404 -22.8666 -8.3752 17.8753 2.4640 -131.2932 40.8203 151.4497 173.5397 83.8883 -143.2537 -0.5042 -21.4698 -27.8606 -64.1983 15.4251 -153.4350 21.1777 -2.5113 -93.2321 -0.0338 -0.8815 0.8825 -0.6229 5.6632 21.3597 -145.9229 5.3206 98.8948 3.5434 -1.8446 74.0733 1.2903 -1.2762 0.3964 -48.6852 15.6465 96.4210 0.1196 22.7649 -8.4476 -6.5256 -2.9109 0.5844 3.9960 -10.1030 0.9104 -29.5382 -12.1206 95.3846 2.7981 38.7023 6.7814 6.1741 -9.0562 -0.9895 2.3229 -5.0667 -19.7422 
0.0000 93.1000 0.0000 66.7946 18.8780 4.2036 -71.1595 0.0120 88.1128 104.5823 68.6560 -19.3393 -7.2778 18.0941 2.7598 -130.2748 41.0394 153.5515 155.4345 83.3337 -123.6098 -0.5495 -20.5640 -26.9501 -65.4478 16.6037 -154.3999 20.0765 -1.9402 -93.0545 -0.2069 -0.5633 0.6434 -0.8141 5.1196 24.0660 -145.6338 5.2768 98.3711 3.5205 -1.6854 74.6558 1.1804 -0.9298 0.5396 -48.0937 16.3885 93.6508 -0.1284 25.7783 -9.6167 -7.0855 -3.8004 0.4242 2.7586 -9.0293 0.8626 -31.9998 -15.0213 88.7943 2.5668 37.6567 8.5418 4.5510 -7.9693 -0.7766 1.6743 -3.3072 -18.6709 
0.0000 93.1000 0.0000 67.9905 18.6772 4.5370 -71.1533 0.1671 88.0868 100.2953 69.5340 -16.7861 -5.4044 18.0717 3.9383 -130.3644 41.4287 154.6445 148.3035 83.0695 -116.4332 -1.2249 -20.4748 -27.8402 -66.7447 17.8928 -153.4046 18.9904 -2.0768 -93.7424 -0.1332 0.2435 0.2746 -0.8170 5.1831 25.1127 -145.2426 4.2469 97.9529 3.8036 -1.8346 74.1461 0.4109 -0.0428 0.2375 -47.5067 17.4350 91.7052 -0.7049 27.7194 -9.4261 -7.0500 -5.7942 -0.4824 2.8283 -8.3241 0.1273 -33.1565 -16.3540 84.6852 2.2037 37.4296 10.1402 4.8105 -7.7088 -0.4874 3.1009 -1.6044 -20.3378 
